{"asset":{"version":"2.0","generator":"Blockbench 4.9.4 glTF exporter"},"scenes":[{"nodes":[17],"name":"blockbench_export"}],"scene":0,"nodes":[{"translation":[0.052962436719785545,-0.28318077185953866,0.30997709647607896],"name":"cube","mesh":0},{"rotation":[-0.14780941112961063,0,0,0.9890158633619168],"translation":[0.052962436719785545,0.10431922814046113,0.0037270964760789393],"name":"cube","mesh":1},{"rotation":[-0.5519369853120581,0,0,0.8338858220671682],"translation":[-0.028287563280214457,0.19002398201581794,-0.059382492043926205],"name":"cube","mesh":2},{"rotation":[-0.14780941112961063,0,0,0.9890158633619168],"translation":[0.052962436719785545,0.10431922814046113,0.0037270964760789393],"name":"cube","mesh":3},{"rotation":[-0.5519369853120581,0,0,0.8338858220671682],"translation":[0.13421243671978556,0.19002398201581794,-0.059382492043926205],"name":"cube","mesh":4},{"translation":[-0.052962436719785545,0.28318077185953866,-0.30997709647607896],"name":"Head","children":[0,1,2,3,4]},{"name":"cube","mesh":5},{"name":"cube","mesh":6},{"name":"cube","mesh":7},{"name":"Body","children":[6,7,8]},{"translation":[0,-0.23125,-0.125],"name":"LowerHalf","children":[5,9]},{"name":"cube","mesh":8},{"name":"cube","mesh":9},{"translation":[0,-0.23125,-0.125],"name":"Shell","children":[11,12]},{"translation":[0,0.23125,0.125],"name":"MainBody","children":[10,13]},{"name":"GiantZombieSnailBody","children":[14]},{"translation":[0,0.018750000000000003,0],"name":"GiantZombieSnail","children":[15]},{"children":[16]}],"bufferViews":[{"buffer":0,"byteOffset":0,"byteLength":288,"target":34962,"byteStride":12},{"buffer":0,"byteOffset":288,"byteLength":288,"target":34962,"byteStride":12},{"buffer":0,"byteOffset":576,"byteLength":192,"target":34962,"byteStride":8},{"buffer":0,"byteOffset":768,"byteLength":72,"target":34963},{"buffer":0,"byteOffset":840,"byteLength":288,"target":34962,"byteStride":12},{"buffer":0,"byteOffset":1128,"byteLength":288,"target":34962,"byteStride":12},{"buffer":0,"byteOffset":1416,"byteLength":192,"target":34962,"byteStride":8},{"buffer":0,"byteOffset":1608,"byteLength":72,"target":34963},{"buffer":0,"byteOffset":1680,"byteLength":288,"target":34962,"byteStride":12},{"buffer":0,"byteOffset":1968,"byteLength":288,"target":34962,"byteStride":12},{"buffer":0,"byteOffset":2256,"byteLength":192,"target":34962,"byteStride":8},{"buffer":0,"byteOffset":2448,"byteLength":72,"target":34963},{"buffer":0,"byteOffset":2520,"byteLength":288,"target":34962,"byteStride":12},{"buffer":0,"byteOffset":2808,"byteLength":288,"target":34962,"byteStride":12},{"buffer":0,"byteOffset":3096,"byteLength":192,"target":34962,"byteStride":8},{"buffer":0,"byteOffset":3288,"byteLength":72,"target":34963},{"buffer":0,"byteOffset":3360,"byteLength":288,"target":34962,"byteStride":12},{"buffer":0,"byteOffset":3648,"byteLength":288,"target":34962,"byteStride":12},{"buffer":0,"byteOffset":3936,"byteLength":192,"target":34962,"byteStride":8},{"buffer":0,"byteOffset":4128,"byteLength":72,"target":34963},{"buffer":0,"byteOffset":4200,"byteLength":288,"target":34962,"byteStride":12},{"buffer":0,"byteOffset":4488,"byteLength":288,"target":34962,"byteStride":12},{"buffer":0,"byteOffset":4776,"byteLength":192,"target":34962,"byteStride":8},{"buffer":0,"byteOffset":4968,"byteLength":72,"target":34963},{"buffer":0,"byteOffset":5040,"byteLength":288,"target":34962,"byteStride":12},{"buffer":0,"byteOffset":5328,"byteLength":288,"target":34962,"byteStride":12},{"buffer":0,"byteOffset":5616,"byteLength":192,"target":34962,"byteStride":8},{"buffer":0,"byteOffset":5808,"byteLength":72,"target":34963},{"buffer":0,"byteOffset":5880,"byteLength":288,"target":34962,"byteStride":12},{"buffer":0,"byteOffset":6168,"byteLength":288,"target":34962,"byteStride":12},{"buffer":0,"byteOffset":6456,"byteLength":192,"target":34962,"byteStride":8},{"buffer":0,"byteOffset":6648,"byteLength":72,"target":34963},{"buffer":0,"byteOffset":6720,"byteLength":288,"target":34962,"byteStride":12},{"buffer":0,"byteOffset":7008,"byteLength":288,"target":34962,"byteStride":12},{"buffer":0,"byteOffset":7296,"byteLength":192,"target":34962,"byteStride":8},{"buffer":0,"byteOffset":7488,"byteLength":72,"target":34963},{"buffer":0,"byteOffset":7560,"byteLength":288,"target":34962,"byteStride":12},{"buffer":0,"byteOffset":7848,"byteLength":288,"target":34962,"byteStride":12},{"buffer":0,"byteOffset":8136,"byteLength":192,"target":34962,"byteStride":8},{"buffer":0,"byteOffset":8328,"byteLength":72,"target":34963},{"buffer":0,"byteOffset":8400,"byteLength":8},{"buffer":0,"byteOffset":8408,"byteLength":32},{"buffer":0,"byteOffset":8440,"byteLength":8},{"buffer":0,"byteOffset":8448,"byteLength":24},{"buffer":0,"byteOffset":8472,"byteLength":156},{"buffer":0,"byteOffset":8628,"byteLength":468},{"buffer":0,"byteOffset":9096,"byteLength":152},{"buffer":0,"byteOffset":9248,"byteLength":608},{"buffer":0,"byteOffset":9856,"byteLength":152},{"buffer":0,"byteOffset":10008,"byteLength":456},{"buffer":0,"byteOffset":10464,"byteLength":156},{"buffer":0,"byteOffset":10620,"byteLength":468},{"buffer":0,"byteOffset":11088,"byteLength":156},{"buffer":0,"byteOffset":11244,"byteLength":468},{"buffer":0,"byteOffset":11712,"byteLength":156},{"buffer":0,"byteOffset":11868,"byteLength":468},{"buffer":0,"byteOffset":12336,"byteLength":8},{"buffer":0,"byteOffset":12344,"byteLength":32},{"buffer":0,"byteOffset":12376,"byteLength":8},{"buffer":0,"byteOffset":12384,"byteLength":24},{"buffer":0,"byteOffset":12408,"byteLength":8},{"buffer":0,"byteOffset":12416,"byteLength":24},{"buffer":0,"byteOffset":12440,"byteLength":8},{"buffer":0,"byteOffset":12448,"byteLength":32},{"buffer":0,"byteOffset":12480,"byteLength":8},{"buffer":0,"byteOffset":12488,"byteLength":24},{"buffer":0,"byteOffset":12512,"byteLength":8},{"buffer":0,"byteOffset":12520,"byteLength":24},{"buffer":0,"byteOffset":12544,"byteLength":108},{"buffer":0,"byteOffset":12652,"byteLength":432},{"buffer":0,"byteOffset":13084,"byteLength":8},{"buffer":0,"byteOffset":13092,"byteLength":24},{"buffer":0,"byteOffset":13116,"byteLength":8},{"buffer":0,"byteOffset":13124,"byteLength":24},{"buffer":0,"byteOffset":13148,"byteLength":8},{"buffer":0,"byteOffset":13156,"byteLength":32},{"buffer":0,"byteOffset":13188,"byteLength":8},{"buffer":0,"byteOffset":13196,"byteLength":24},{"buffer":0,"byteOffset":13220,"byteLength":8},{"buffer":0,"byteOffset":13228,"byteLength":24},{"buffer":0,"byteOffset":13252,"byteLength":104},{"buffer":0,"byteOffset":13356,"byteLength":416},{"buffer":0,"byteOffset":13772,"byteLength":104},{"buffer":0,"byteOffset":13876,"byteLength":312},{"buffer":0,"byteOffset":14188,"byteLength":104},{"buffer":0,"byteOffset":14292,"byteLength":312},{"buffer":0,"byteOffset":14604,"byteLength":8},{"buffer":0,"byteOffset":14612,"byteLength":32},{"buffer":0,"byteOffset":14644,"byteLength":104},{"buffer":0,"byteOffset":14748,"byteLength":312},{"buffer":0,"byteOffset":15060,"byteLength":104},{"buffer":0,"byteOffset":15164,"byteLength":312},{"buffer":0,"byteOffset":15476,"byteLength":8},{"buffer":0,"byteOffset":15484,"byteLength":32},{"buffer":0,"byteOffset":15516,"byteLength":8},{"buffer":0,"byteOffset":15524,"byteLength":24},{"buffer":0,"byteOffset":15548,"byteLength":8},{"buffer":0,"byteOffset":15556,"byteLength":24}],"buffers":[{"byteLength":15580,"uri":"data:application/octet-stream;base64,"}],"accessors":[{"bufferView":0,"componentType":5126,"count":24,"max":[0.125,0.30000001192092896,-0.15625],"min":[-0.125,-0.03750000149011612,-0.33125001192092896],"type":"VEC3"},{"bufferView":1,"componentType":5126,"count":24,"max":[1,1,1],"min":[-1,-1,-1],"type":"VEC3"},{"bufferView":2,"componentType":5126,"count":24,"max":[0.5,0.4453125],"min":[0.109375,0.09375],"type":"VEC2"},{"bufferView":3,"componentType":5123,"count":36,"max":[23],"min":[0],"type":"SCALAR"},{"bufferView":4,"componentType":5126,"count":24,"max":[-0.06875000149011612,0.07500000298023224,-0.012500000186264515],"min":[-0.09375,-0.11249999701976776,-0.03750000149011612],"type":"VEC3"},{"bufferView":5,"componentType":5126,"count":24,"max":[1,1,1],"min":[-1,-1,-1],"type":"VEC3"},{"bufferView":6,"componentType":5126,"count":24,"max":[0.4765625,0.5],"min":[0.21875,0.21875],"type":"VEC2"},{"bufferView":7,"componentType":5123,"count":36,"max":[23],"min":[0],"type":"SCALAR"},{"bufferView":8,"componentType":5126,"count":24,"max":[0.01875000074505806,0.0625,1.1102230246251565e-16],"min":[-0.01875000074505806,-0.0625,-0.03750000149011612],"type":"VEC3"},{"bufferView":9,"componentType":5126,"count":24,"max":[1,1,1],"min":[-1,-1,-1],"type":"VEC3"},{"bufferView":10,"componentType":5126,"count":24,"max":[0.4765625,0.5],"min":[0.15625,0.265625],"type":"VEC2"},{"bufferView":11,"componentType":5123,"count":36,"max":[23],"min":[0],"type":"SCALAR"},{"bufferView":12,"componentType":5126,"count":24,"max":[0.09375,0.07500000298023224,-0.012500000186264515],"min":[0.06875000149011612,-0.11249999701976776,-0.03750000149011612],"type":"VEC3"},{"bufferView":13,"componentType":5126,"count":24,"max":[1,1,1],"min":[-1,-1,-1],"type":"VEC3"},{"bufferView":14,"componentType":5126,"count":24,"max":[0.4765625,0.515625],"min":[0.0625,0],"type":"VEC2"},{"bufferView":15,"componentType":5123,"count":36,"max":[23],"min":[0],"type":"SCALAR"},{"bufferView":16,"componentType":5126,"count":24,"max":[0.01875000074505806,0.0625,1.1102230246251565e-16],"min":[-0.01875000074505806,-0.0625,-0.03750000149011612],"type":"VEC3"},{"bufferView":17,"componentType":5126,"count":24,"max":[1,1,1],"min":[-1,-1,-1],"type":"VEC3"},{"bufferView":18,"componentType":5126,"count":24,"max":[0.4765625,0.5],"min":[0.09375,0.234375],"type":"VEC2"},{"bufferView":19,"componentType":5123,"count":36,"max":[23],"min":[0],"type":"SCALAR"},{"bufferView":20,"componentType":5126,"count":24,"max":[0.17499999701976776,0.05624999850988388,0.3187499940395355],"min":[-0.17499999701976776,-0.01875000074505806,-0.1875],"type":"VEC3"},{"bufferView":21,"componentType":5126,"count":24,"max":[1,1,1],"min":[-1,-1,-1],"type":"VEC3"},{"bufferView":22,"componentType":5126,"count":24,"max":[0.5234375,0.46875],"min":[0.25,0.09375],"type":"VEC2"},{"bufferView":23,"componentType":5123,"count":36,"max":[23],"min":[0],"type":"SCALAR"},{"bufferView":24,"componentType":5126,"count":24,"max":[0.10625000298023224,0.04374999925494194,0.4625000059604645],"min":[-0.10625000298023224,-0.01875000074505806,0.3187499940395355],"type":"VEC3"},{"bufferView":25,"componentType":5126,"count":24,"max":[1,1,1],"min":[-1,-1,-1],"type":"VEC3"},{"bufferView":26,"componentType":5126,"count":24,"max":[0.4921875,0.4765625],"min":[0.0625,0.34375],"type":"VEC2"},{"bufferView":27,"componentType":5123,"count":36,"max":[23],"min":[0],"type":"SCALAR"},{"bufferView":28,"componentType":5126,"count":24,"max":[0.05624999850988388,0.04374999925494194,0.606249988079071],"min":[-0.05624999850988388,-0.01875000074505806,0.4625000059604645],"type":"VEC3"},{"bufferView":29,"componentType":5126,"count":24,"max":[1,1,1],"min":[-1,-1,-1],"type":"VEC3"},{"bufferView":30,"componentType":5126,"count":24,"max":[0.4921875,0.4921875],"min":[0,0.21875],"type":"VEC2"},{"bufferView":31,"componentType":5123,"count":36,"max":[23],"min":[0],"type":"SCALAR"},{"bufferView":32,"componentType":5126,"count":24,"max":[0.21250000596046448,0.512499988079071,0.34375],"min":[-0.21250000596046448,0.05000000074505806,-0.13124999403953552],"type":"VEC3"},{"bufferView":33,"componentType":5126,"count":24,"max":[1,1,1],"min":[-1,-1,-1],"type":"VEC3"},{"bufferView":34,"componentType":5126,"count":24,"max":[0.34375,0.2421875],"min":[0,0],"type":"VEC2"},{"bufferView":35,"componentType":5123,"count":36,"max":[23],"min":[0],"type":"SCALAR"},{"bufferView":36,"componentType":5126,"count":24,"max":[0.24375000596046448,0.4749999940395355,0.3062500059604645],"min":[-0.24375000596046448,0.08749999850988388,-0.09375],"type":"VEC3"},{"bufferView":37,"componentType":5126,"count":24,"max":[1,1,1],"min":[-1,-1,-1],"type":"VEC3"},{"bufferView":38,"componentType":5126,"count":24,"max":[0.46875,0.453125],"min":[0,0],"type":"VEC2"},{"bufferView":39,"componentType":5123,"count":36,"max":[23],"min":[0],"type":"SCALAR"},{"bufferView":40,"componentType":5126,"count":2,"max":[2],"min":[0],"type":"SCALAR"},{"bufferView":41,"componentType":5126,"count":2,"max":[0,0,0,1],"min":[0,0,0,1],"type":"VEC4"},{"bufferView":42,"componentType":5126,"count":2,"max":[2],"min":[0],"type":"SCALAR"},{"bufferView":43,"componentType":5126,"count":2,"max":[0,0,0],"min":[0,0,0],"type":"VEC3"},{"bufferView":44,"componentType":5126,"count":39,"max":[2],"min":[0],"type":"SCALAR"},{"bufferView":45,"componentType":5126,"count":39,"max":[1.0199999809265137,1.0199999809265137,1.0199999809265137],"min":[1,1,1],"type":"VEC3"},{"bufferView":46,"componentType":5126,"count":38,"max":[2],"min":[0],"type":"SCALAR"},{"bufferView":47,"componentType":5126,"count":38,"max":[0.04503708332777023,0,0,1],"min":[-0.06162380054593086,0,0,0.9980994462966919],"type":"VEC4"},{"bufferView":48,"componentType":5126,"count":38,"max":[2],"min":[0],"type":"SCALAR"},{"bufferView":49,"componentType":5126,"count":38,"max":[-0.05296243727207184,0.3401208817958832,-0.30997708439826965],"min":[-0.05296243727207184,0.28318077325820923,-0.3417479395866394],"type":"VEC3"},{"bufferView":50,"componentType":5126,"count":39,"max":[2],"min":[0],"type":"SCALAR"},{"bufferView":51,"componentType":5126,"count":39,"max":[0,0,0],"min":[0,0,-0.125],"type":"VEC3"},{"bufferView":52,"componentType":5126,"count":39,"max":[2],"min":[0],"type":"SCALAR"},{"bufferView":53,"componentType":5126,"count":39,"max":[1,1,1],"min":[0.9300000071525574,0.9300000071525574,0.9300000071525574],"type":"VEC3"},{"bufferView":54,"componentType":5126,"count":39,"max":[2],"min":[0],"type":"SCALAR"},{"bufferView":55,"componentType":5126,"count":39,"max":[0,-0.23125000298023224,-0.125],"min":[0,-0.23125000298023224,-0.20000000298023224],"type":"VEC3"},{"bufferView":56,"componentType":5126,"count":2,"max":[1.5],"min":[0],"type":"SCALAR"},{"bufferView":57,"componentType":5126,"count":2,"max":[0,0,0,1],"min":[0,0,0,1],"type":"VEC4"},{"bufferView":58,"componentType":5126,"count":2,"max":[1.5],"min":[0],"type":"SCALAR"},{"bufferView":59,"componentType":5126,"count":2,"max":[0,0.01875000074505806,0],"min":[0,0.01875000074505806,0],"type":"VEC3"},{"bufferView":60,"componentType":5126,"count":2,"max":[1.5],"min":[0],"type":"SCALAR"},{"bufferView":61,"componentType":5126,"count":2,"max":[1,1,1],"min":[1,1,1],"type":"VEC3"},{"bufferView":62,"componentType":5126,"count":2,"max":[1.5],"min":[0],"type":"SCALAR"},{"bufferView":63,"componentType":5126,"count":2,"max":[0,0,0,1],"min":[0,0,0,1],"type":"VEC4"},{"bufferView":64,"componentType":5126,"count":2,"max":[1.5],"min":[0],"type":"SCALAR"},{"bufferView":65,"componentType":5126,"count":2,"max":[0,0,0],"min":[0,0,0],"type":"VEC3"},{"bufferView":66,"componentType":5126,"count":2,"max":[1.5],"min":[0],"type":"SCALAR"},{"bufferView":67,"componentType":5126,"count":2,"max":[1,1,1],"min":[1,1,1],"type":"VEC3"},{"bufferView":68,"componentType":5126,"count":27,"max":[1.5],"min":[0],"type":"SCALAR"},{"bufferView":69,"componentType":5126,"count":27,"max":[0.05384213849902153,0,0,1],"min":[-1,0,0,-1],"type":"VEC4"},{"bufferView":70,"componentType":5126,"count":2,"max":[1.5],"min":[0],"type":"SCALAR"},{"bufferView":71,"componentType":5126,"count":2,"max":[0,0.23125000298023224,0.125],"min":[0,0.23125000298023224,0.125],"type":"VEC3"},{"bufferView":72,"componentType":5126,"count":2,"max":[1.5],"min":[0],"type":"SCALAR"},{"bufferView":73,"componentType":5126,"count":2,"max":[1,1,1],"min":[1,1,1],"type":"VEC3"},{"bufferView":74,"componentType":5126,"count":2,"max":[1.5],"min":[0],"type":"SCALAR"},{"bufferView":75,"componentType":5126,"count":2,"max":[0,0,0,1],"min":[0,0,0,1],"type":"VEC4"},{"bufferView":76,"componentType":5126,"count":2,"max":[1.5],"min":[0],"type":"SCALAR"},{"bufferView":77,"componentType":5126,"count":2,"max":[0,-0.23125000298023224,-0.125],"min":[0,-0.23125000298023224,-0.125],"type":"VEC3"},{"bufferView":78,"componentType":5126,"count":2,"max":[1.5],"min":[0],"type":"SCALAR"},{"bufferView":79,"componentType":5126,"count":2,"max":[1,1,1],"min":[1,1,1],"type":"VEC3"},{"bufferView":80,"componentType":5126,"count":26,"max":[1.5],"min":[0],"type":"SCALAR"},{"bufferView":81,"componentType":5126,"count":26,"max":[0,0,0,1],"min":[-0.7539935111999512,0,0,0.6568819284439087],"type":"VEC4"},{"bufferView":82,"componentType":5126,"count":26,"max":[1.5],"min":[0],"type":"SCALAR"},{"bufferView":83,"componentType":5126,"count":26,"max":[-0.05296243727207184,0.28318077325820923,0.10486665368080139],"min":[-0.05296243727207184,0.1636495292186737,-0.30997708439826965],"type":"VEC3"},{"bufferView":84,"componentType":5126,"count":26,"max":[1.5],"min":[0],"type":"SCALAR"},{"bufferView":85,"componentType":5126,"count":26,"max":[1,1,1],"min":[0.6054947972297668,0.6054947972297668,0.6054947972297668],"type":"VEC3"},{"bufferView":86,"componentType":5126,"count":2,"max":[1.5],"min":[0],"type":"SCALAR"},{"bufferView":87,"componentType":5126,"count":2,"max":[0,0,0,1],"min":[0,0,0,1],"type":"VEC4"},{"bufferView":88,"componentType":5126,"count":26,"max":[1.5],"min":[0],"type":"SCALAR"},{"bufferView":89,"componentType":5126,"count":26,"max":[0,0.11249999701976776,0],"min":[0,0,0],"type":"VEC3"},{"bufferView":90,"componentType":5126,"count":26,"max":[1.5],"min":[0],"type":"SCALAR"},{"bufferView":91,"componentType":5126,"count":26,"max":[1,1,1],"min":[1,1,0.4037500023841858],"type":"VEC3"},{"bufferView":92,"componentType":5126,"count":2,"max":[1.5],"min":[0],"type":"SCALAR"},{"bufferView":93,"componentType":5126,"count":2,"max":[0,0,0,1],"min":[0,0,0,1],"type":"VEC4"},{"bufferView":94,"componentType":5126,"count":2,"max":[1.5],"min":[0],"type":"SCALAR"},{"bufferView":95,"componentType":5126,"count":2,"max":[0,-0.23125000298023224,-0.125],"min":[0,-0.23125000298023224,-0.125],"type":"VEC3"},{"bufferView":96,"componentType":5126,"count":2,"max":[1.5],"min":[0],"type":"SCALAR"},{"bufferView":97,"componentType":5126,"count":2,"max":[1,1,1],"min":[1,1,1],"type":"VEC3"}],"materials":[{"pbrMetallicRoughness":{"metallicFactor":0,"roughnessFactor":1,"baseColorTexture":{"index":0}},"alphaMode":"MASK","alphaCutoff":0.05,"doubleSided":true}],"textures":[{"sampler":0,"source":0}],"samplers":[{"magFilter":9728,"minFilter":9728,"wrapS":33071,"wrapT":33071}],"images":[{"mimeType":"image/png","uri":"data:image/png;base64,"}],"meshes":[{"primitives":[{"mode":4,"attributes":{"POSITION":0,"NORMAL":1,"TEXCOORD_0":2},"indices":3,"material":0}]},{"primitives":[{"mode":4,"attributes":{"POSITION":4,"NORMAL":5,"TEXCOORD_0":6},"indices":7,"material":0}]},{"primitives":[{"mode":4,"attributes":{"POSITION":8,"NORMAL":9,"TEXCOORD_0":10},"indices":11,"material":0}]},{"primitives":[{"mode":4,"attributes":{"POSITION":12,"NORMAL":13,"TEXCOORD_0":14},"indices":15,"material":0}]},{"primitives":[{"mode":4,"attributes":{"POSITION":16,"NORMAL":17,"TEXCOORD_0":18},"indices":19,"material":0}]},{"primitives":[{"mode":4,"attributes":{"POSITION":20,"NORMAL":21,"TEXCOORD_0":22},"indices":23,"material":0}]},{"primitives":[{"mode":4,"attributes":{"POSITION":24,"NORMAL":25,"TEXCOORD_0":26},"indices":27,"material":0}]},{"primitives":[{"mode":4,"attributes":{"POSITION":28,"NORMAL":29,"TEXCOORD_0":30},"indices":31,"material":0}]},{"primitives":[{"mode":4,"attributes":{"POSITION":32,"NORMAL":33,"TEXCOORD_0":34},"indices":35,"material":0}]},{"primitives":[{"mode":4,"attributes":{"POSITION":36,"NORMAL":37,"TEXCOORD_0":38},"indices":39,"material":0}]}],"animations":[{"name":"Slither","samplers":[{"input":40,"output":41,"interpolation":"LINEAR"},{"input":42,"output":43,"interpolation":"LINEAR"},{"input":44,"output":45,"interpolation":"LINEAR"},{"input":46,"output":47,"interpolation":"LINEAR"},{"input":48,"output":49,"interpolation":"LINEAR"},{"input":50,"output":51,"interpolation":"LINEAR"},{"input":52,"output":53,"interpolation":"LINEAR"},{"input":54,"output":55,"interpolation":"LINEAR"}],"channels":[{"sampler":0,"target":{"node":15,"path":"rotation"}},{"sampler":1,"target":{"node":15,"path":"translation"}},{"sampler":2,"target":{"node":15,"path":"scale"}},{"sampler":3,"target":{"node":5,"path":"rotation"}},{"sampler":4,"target":{"node":5,"path":"translation"}},{"sampler":5,"target":{"node":9,"path":"translation"}},{"sampler":6,"target":{"node":9,"path":"scale"}},{"sampler":7,"target":{"node":13,"path":"translation"}}]},{"name":"Roll","samplers":[{"input":56,"output":57,"interpolation":"LINEAR"},{"input":58,"output":59,"interpolation":"LINEAR"},{"input":60,"output":61,"interpolation":"LINEAR"},{"input":62,"output":63,"interpolation":"LINEAR"},{"input":64,"output":65,"interpolation":"LINEAR"},{"input":66,"output":67,"interpolation":"LINEAR"},{"input":68,"output":69,"interpolation":"LINEAR"},{"input":70,"output":71,"interpolation":"LINEAR"},{"input":72,"output":73,"interpolation":"LINEAR"},{"input":74,"output":75,"interpolation":"LINEAR"},{"input":76,"output":77,"interpolation":"LINEAR"},{"input":78,"output":79,"interpolation":"LINEAR"},{"input":80,"output":81,"interpolation":"LINEAR"},{"input":82,"output":83,"interpolation":"LINEAR"},{"input":84,"output":85,"interpolation":"LINEAR"},{"input":86,"output":87,"interpolation":"LINEAR"},{"input":88,"output":89,"interpolation":"LINEAR"},{"input":90,"output":91,"interpolation":"LINEAR"},{"input":92,"output":93,"interpolation":"LINEAR"},{"input":94,"output":95,"interpolation":"LINEAR"},{"input":96,"output":97,"interpolation":"LINEAR"}],"channels":[{"sampler":0,"target":{"node":16,"path":"rotation"}},{"sampler":1,"target":{"node":16,"path":"translation"}},{"sampler":2,"target":{"node":16,"path":"scale"}},{"sampler":3,"target":{"node":15,"path":"rotation"}},{"sampler":4,"target":{"node":15,"path":"translation"}},{"sampler":5,"target":{"node":15,"path":"scale"}},{"sampler":6,"target":{"node":14,"path":"rotation"}},{"sampler":7,"target":{"node":14,"path":"translation"}},{"sampler":8,"target":{"node":14,"path":"scale"}},{"sampler":9,"target":{"node":10,"path":"rotation"}},{"sampler":10,"target":{"node":10,"path":"translation"}},{"sampler":11,"target":{"node":10,"path":"scale"}},{"sampler":12,"target":{"node":5,"path":"rotation"}},{"sampler":13,"target":{"node":5,"path":"translation"}},{"sampler":14,"target":{"node":5,"path":"scale"}},{"sampler":15,"target":{"node":9,"path":"rotation"}},{"sampler":16,"target":{"node":9,"path":"translation"}},{"sampler":17,"target":{"node":9,"path":"scale"}},{"sampler":18,"target":{"node":13,"path":"rotation"}},{"sampler":19,"target":{"node":13,"path":"translation"}},{"sampler":20,"target":{"node":13,"path":"scale"}}]}]}