{"asset":{"version":"2.0","generator":"Blockbench 4.9.4 glTF exporter"},"scenes":[{"nodes":[13],"name":"blockbench_export"}],"scene":0,"nodes":[{"translation":[-0.0015888731015935645,-0.03212957684421397,0.2844506871057177],"name":"cube","mesh":0},{"translation":[0.0015888731015935645,0.03212957684421397,-0.2844506871057177],"name":"Head","children":[0]},{"name":"cube","mesh":1},{"name":"cube","mesh":2},{"name":"SegmentOne","children":[2,3]},{"translation":[0,-0.2312499999999998,-0.125],"name":"Body","children":[4]},{"name":"cube","mesh":3},{"translation":[0,-0.2312499999999998,-0.125],"name":"SegmentTwo","children":[6]},{"name":"cube","mesh":4},{"translation":[0,-0.2312499999999998,-0.125],"name":"Tail","children":[8]},{"translation":[0,0.2312499999999998,0.125],"name":"MainBody","children":[5,7,9]},{"translation":[0,0.07500000000000001,0],"name":"GrubBody","children":[1,10]},{"name":"Grub","children":[11]},{"children":[12]}],"bufferViews":[{"buffer":0,"byteOffset":0,"byteLength":288,"target":34962,"byteStride":12},{"buffer":0,"byteOffset":288,"byteLength":288,"target":34962,"byteStride":12},{"buffer":0,"byteOffset":576,"byteLength":192,"target":34962,"byteStride":8},{"buffer":0,"byteOffset":768,"byteLength":72,"target":34963},{"buffer":0,"byteOffset":840,"byteLength":288,"target":34962,"byteStride":12},{"buffer":0,"byteOffset":1128,"byteLength":288,"target":34962,"byteStride":12},{"buffer":0,"byteOffset":1416,"byteLength":192,"target":34962,"byteStride":8},{"buffer":0,"byteOffset":1608,"byteLength":72,"target":34963},{"buffer":0,"byteOffset":1680,"byteLength":288,"target":34962,"byteStride":12},{"buffer":0,"byteOffset":1968,"byteLength":288,"target":34962,"byteStride":12},{"buffer":0,"byteOffset":2256,"byteLength":192,"target":34962,"byteStride":8},{"buffer":0,"byteOffset":2448,"byteLength":72,"target":34963},{"buffer":0,"byteOffset":2520,"byteLength":288,"target":34962,"byteStride":12},{"buffer":0,"byteOffset":2808,"byteLength":288,"target":34962,"byteStride":12},{"buffer":0,"byteOffset":3096,"byteLength":192,"target":34962,"byteStride":8},{"buffer":0,"byteOffset":3288,"byteLength":72,"target":34963},{"buffer":0,"byteOffset":3360,"byteLength":288,"target":34962,"byteStride":12},{"buffer":0,"byteOffset":3648,"byteLength":288,"target":34962,"byteStride":12},{"buffer":0,"byteOffset":3936,"byteLength":192,"target":34962,"byteStride":8},{"buffer":0,"byteOffset":4128,"byteLength":72,"target":34963},{"buffer":0,"byteOffset":4200,"byteLength":68},{"buffer":0,"byteOffset":4268,"byteLength":204},{"buffer":0,"byteOffset":4472,"byteLength":68},{"buffer":0,"byteOffset":4540,"byteLength":272},{"buffer":0,"byteOffset":4812,"byteLength":32},{"buffer":0,"byteOffset":4844,"byteLength":96},{"buffer":0,"byteOffset":4940,"byteLength":32},{"buffer":0,"byteOffset":4972,"byteLength":96},{"buffer":0,"byteOffset":5068,"byteLength":36},{"buffer":0,"byteOffset":5104,"byteLength":108},{"buffer":0,"byteOffset":5212,"byteLength":36},{"buffer":0,"byteOffset":5248,"byteLength":108},{"buffer":0,"byteOffset":5356,"byteLength":32},{"buffer":0,"byteOffset":5388,"byteLength":96},{"buffer":0,"byteOffset":5484,"byteLength":32},{"buffer":0,"byteOffset":5516,"byteLength":96},{"buffer":0,"byteOffset":5612,"byteLength":28},{"buffer":0,"byteOffset":5640,"byteLength":84},{"buffer":0,"byteOffset":5724,"byteLength":28},{"buffer":0,"byteOffset":5752,"byteLength":84},{"buffer":0,"byteOffset":5836,"byteLength":64},{"buffer":0,"byteOffset":5900,"byteLength":256},{"buffer":0,"byteOffset":6156,"byteLength":64},{"buffer":0,"byteOffset":6220,"byteLength":192},{"buffer":0,"byteOffset":6412,"byteLength":88},{"buffer":0,"byteOffset":6500,"byteLength":352},{"buffer":0,"byteOffset":6852,"byteLength":84},{"buffer":0,"byteOffset":6936,"byteLength":336},{"buffer":0,"byteOffset":7272,"byteLength":88},{"buffer":0,"byteOffset":7360,"byteLength":264},{"buffer":0,"byteOffset":7624,"byteLength":88},{"buffer":0,"byteOffset":7712,"byteLength":352}],"buffers":[{"byteLength":8064,"uri":"data:application/octet-stream;base64,"}],"accessors":[{"bufferView":0,"componentType":5126,"count":24,"max":[0.125,0.16875000298023224,-0.21875],"min":[-0.125,-0.08749999850988388,-0.34375],"type":"VEC3"},{"bufferView":1,"componentType":5126,"count":24,"max":[1,1,1],"min":[-1,-1,-1],"type":"VEC3"},{"bufferView":2,"componentType":5126,"count":24,"max":[0.8125,0.75],"min":[0,0],"type":"VEC2"},{"bufferView":3,"componentType":5123,"count":36,"max":[23],"min":[0],"type":"SCALAR"},{"bufferView":4,"componentType":5126,"count":24,"max":[0.14374999701976776,0.24375000596046448,0.23125000298023224],"min":[-0.14374999701976776,-0.08749999850988388,-0.22499999403953552],"type":"VEC3"},{"bufferView":5,"componentType":5126,"count":24,"max":[1,1,1],"min":[-1,-1,-1],"type":"VEC3"},{"bufferView":6,"componentType":5126,"count":24,"max":[0.546875,0.546875],"min":[0,0],"type":"VEC2"},{"bufferView":7,"componentType":5123,"count":36,"max":[23],"min":[0],"type":"SCALAR"},{"bufferView":8,"componentType":5126,"count":24,"max":[0.15000000596046448,0.25,-0.03750000149011612],"min":[-0.15000000596046448,-0.09375,-0.20000000298023224],"type":"VEC3"},{"bufferView":9,"componentType":5126,"count":24,"max":[1,1,1],"min":[-1,-1,-1],"type":"VEC3"},{"bufferView":10,"componentType":5126,"count":24,"max":[0.8125,0.796875],"min":[0,0],"type":"VEC2"},{"bufferView":11,"componentType":5123,"count":36,"max":[23],"min":[0],"type":"SCALAR"},{"bufferView":12,"componentType":5126,"count":24,"max":[0.125,0.16875000298023224,0.4312500059604645],"min":[-0.125,-0.08749999850988388,0.13124999403953552],"type":"VEC3"},{"bufferView":13,"componentType":5126,"count":24,"max":[1,1,1],"min":[-1,-1,-1],"type":"VEC3"},{"bufferView":14,"componentType":5126,"count":24,"max":[0.6875,0.6875],"min":[0,0],"type":"VEC2"},{"bufferView":15,"componentType":5123,"count":36,"max":[23],"min":[0],"type":"SCALAR"},{"bufferView":16,"componentType":5126,"count":24,"max":[0.08124999701976776,0.03750000149011612,0.5874999761581421],"min":[-0.08124999701976776,-0.08749999850988388,0.4312500059604645],"type":"VEC3"},{"bufferView":17,"componentType":5126,"count":24,"max":[1,1,1],"min":[-1,-1,-1],"type":"VEC3"},{"bufferView":18,"componentType":5126,"count":24,"max":[0.765625,0.75],"min":[0.3125,0.0625],"type":"VEC2"},{"bufferView":19,"componentType":5123,"count":36,"max":[23],"min":[0],"type":"SCALAR"},{"bufferView":20,"componentType":5126,"count":17,"max":[1],"min":[0],"type":"SCALAR"},{"bufferView":21,"componentType":5126,"count":17,"max":[0,0.08749999850988388,0],"min":[0,0.07500000298023224,-0.08124999701976776],"type":"VEC3"},{"bufferView":22,"componentType":5126,"count":17,"max":[1],"min":[0],"type":"SCALAR"},{"bufferView":23,"componentType":5126,"count":17,"max":[0.12680493295192719,0,0,1],"min":[-0.07845909893512726,0,0,0.9919276833534241],"type":"VEC4"},{"bufferView":24,"componentType":5126,"count":8,"max":[0.375],"min":[0],"type":"SCALAR"},{"bufferView":25,"componentType":5126,"count":8,"max":[0.0015888730995357037,0.03212957829236984,-0.2844506800174713],"min":[0.0015888730995357037,0.03212957829236984,-0.29695069789886475],"type":"VEC3"},{"bufferView":26,"componentType":5126,"count":8,"max":[0.375],"min":[0],"type":"SCALAR"},{"bufferView":27,"componentType":5126,"count":8,"max":[1.0299999713897705,1.0299999713897705,1.0299999713897705],"min":[1,1,1],"type":"VEC3"},{"bufferView":28,"componentType":5126,"count":9,"max":[0.5833333134651184],"min":[0],"type":"SCALAR"},{"bufferView":29,"componentType":5126,"count":9,"max":[0,0,0],"min":[0,0,-0.012500000186264515],"type":"VEC3"},{"bufferView":30,"componentType":5126,"count":9,"max":[0.5833333134651184],"min":[0],"type":"SCALAR"},{"bufferView":31,"componentType":5126,"count":9,"max":[1.0299999713897705,1.0299999713897705,1.0299999713897705],"min":[1,1,1],"type":"VEC3"},{"bufferView":32,"componentType":5126,"count":8,"max":[0.75],"min":[0],"type":"SCALAR"},{"bufferView":33,"componentType":5126,"count":8,"max":[0,-0.23125000298023224,-0.125],"min":[0,-0.23125000298023224,-0.13750000298023224],"type":"VEC3"},{"bufferView":34,"componentType":5126,"count":8,"max":[0.75],"min":[0],"type":"SCALAR"},{"bufferView":35,"componentType":5126,"count":8,"max":[1.0299999713897705,1.0299999713897705,1.0299999713897705],"min":[1,1,1],"type":"VEC3"},{"bufferView":36,"componentType":5126,"count":7,"max":[0.9583333134651184],"min":[0],"type":"SCALAR"},{"bufferView":37,"componentType":5126,"count":7,"max":[0,-0.23125000298023224,-0.125],"min":[0,-0.23125000298023224,-0.13750000298023224],"type":"VEC3"},{"bufferView":38,"componentType":5126,"count":7,"max":[0.9583333134651184],"min":[0],"type":"SCALAR"},{"bufferView":39,"componentType":5126,"count":7,"max":[1.0299999713897705,1.0299999713897705,1.0299999713897705],"min":[1,1,1],"type":"VEC3"},{"bufferView":40,"componentType":5126,"count":16,"max":[1],"min":[0],"type":"SCALAR"},{"bufferView":41,"componentType":5126,"count":16,"max":[0.3152157962322235,0,0,1],"min":[-0.7193397879600525,0,0,0.6946583986282349],"type":"VEC4"},{"bufferView":42,"componentType":5126,"count":16,"max":[1],"min":[0],"type":"SCALAR"},{"bufferView":43,"componentType":5126,"count":16,"max":[0,0.4219328761100769,0],"min":[0,-0.7562500238418579,0],"type":"VEC3"},{"bufferView":44,"componentType":5126,"count":22,"max":[1.25],"min":[0],"type":"SCALAR"},{"bufferView":45,"componentType":5126,"count":22,"max":[0,0,0,1],"min":[-0.30070579051971436,0,0,0.9537169337272644],"type":"VEC4"},{"bufferView":46,"componentType":5126,"count":21,"max":[1.25],"min":[0],"type":"SCALAR"},{"bufferView":47,"componentType":5126,"count":21,"max":[0.5459936261177063,0,0,1],"min":[-0.31730467081069946,0,0,0.8377892971038818],"type":"VEC4"},{"bufferView":48,"componentType":5126,"count":22,"max":[1.25],"min":[0],"type":"SCALAR"},{"bufferView":49,"componentType":5126,"count":22,"max":[0,0.37856653332710266,0],"min":[0,-0.7562500238418579,0],"type":"VEC3"},{"bufferView":50,"componentType":5126,"count":22,"max":[1.25],"min":[0],"type":"SCALAR"},{"bufferView":51,"componentType":5126,"count":22,"max":[0.27563735842704773,0,0,1],"min":[-0.3216966688632965,0,0,0.9468427896499634],"type":"VEC4"}],"materials":[{"pbrMetallicRoughness":{"metallicFactor":0,"roughnessFactor":1,"baseColorTexture":{"index":0}},"alphaMode":"MASK","alphaCutoff":0.05,"doubleSided":true}],"textures":[{"sampler":0,"source":0}],"samplers":[{"magFilter":9728,"minFilter":9728,"wrapS":33071,"wrapT":33071}],"images":[{"mimeType":"image/png","uri":"data:image/png;base64,"}],"meshes":[{"primitives":[{"mode":4,"attributes":{"POSITION":0,"NORMAL":1,"TEXCOORD_0":2},"indices":3,"material":0}]},{"primitives":[{"mode":4,"attributes":{"POSITION":4,"NORMAL":5,"TEXCOORD_0":6},"indices":7,"material":0}]},{"primitives":[{"mode":4,"attributes":{"POSITION":8,"NORMAL":9,"TEXCOORD_0":10},"indices":11,"material":0}]},{"primitives":[{"mode":4,"attributes":{"POSITION":12,"NORMAL":13,"TEXCOORD_0":14},"indices":15,"material":0}]},{"primitives":[{"mode":4,"attributes":{"POSITION":16,"NORMAL":17,"TEXCOORD_0":18},"indices":19,"material":0}]}],"animations":[{"name":"Slither","samplers":[{"input":20,"output":21,"interpolation":"LINEAR"},{"input":22,"output":23,"interpolation":"LINEAR"},{"input":24,"output":25,"interpolation":"LINEAR"},{"input":26,"output":27,"interpolation":"LINEAR"},{"input":28,"output":29,"interpolation":"LINEAR"},{"input":30,"output":31,"interpolation":"LINEAR"},{"input":32,"output":33,"interpolation":"LINEAR"},{"input":34,"output":35,"interpolation":"LINEAR"},{"input":36,"output":37,"interpolation":"LINEAR"},{"input":38,"output":39,"interpolation":"LINEAR"}],"channels":[{"sampler":0,"target":{"node":11,"path":"translation"}},{"sampler":1,"target":{"node":1,"path":"rotation"}},{"sampler":2,"target":{"node":1,"path":"translation"}},{"sampler":3,"target":{"node":1,"path":"scale"}},{"sampler":4,"target":{"node":4,"path":"translation"}},{"sampler":5,"target":{"node":4,"path":"scale"}},{"sampler":6,"target":{"node":7,"path":"translation"}},{"sampler":7,"target":{"node":7,"path":"scale"}},{"sampler":8,"target":{"node":9,"path":"translation"}},{"sampler":9,"target":{"node":9,"path":"scale"}}]},{"name":"Burrow","samplers":[{"input":40,"output":41,"interpolation":"LINEAR"},{"input":42,"output":43,"interpolation":"LINEAR"},{"input":44,"output":45,"interpolation":"LINEAR"}],"channels":[{"sampler":0,"target":{"node":11,"path":"rotation"}},{"sampler":1,"target":{"node":11,"path":"translation"}},{"sampler":2,"target":{"node":1,"path":"rotation"}}]},{"name":"Unburrow","samplers":[{"input":46,"output":47,"interpolation":"LINEAR"},{"input":48,"output":49,"interpolation":"LINEAR"},{"input":50,"output":51,"interpolation":"LINEAR"}],"channels":[{"sampler":0,"target":{"node":11,"path":"rotation"}},{"sampler":1,"target":{"node":11,"path":"translation"}},{"sampler":2,"target":{"node":1,"path":"rotation"}}]}]}